<svg id="Layer_1" data-name="Layer 1" xmlns="http://www.w3.org/2000/svg" viewBox="0 0 120 120"><defs><style>.cls-1{fill:#e22b2a;}.cls-2{fill:#3e74b5;}.cls-3{fill:#4e7c53;stroke:#fff;}.cls-3,.cls-4{stroke-miterlimit:10;}.cls-4{fill:#d3bd8d;stroke:#4e7c53;stroke-width:0.39px;}.cls-5{fill:#fdcf0e;}</style></defs><title>App Icon FINAL</title><path class="cls-1" d="M48.25,42.33c-3-5-5.65-9.55-8.59-14.75L18.42,64l35.33.68,3.56-6.74C54.1,52.38,51.66,47.94,48.25,42.33Z"/><path class="cls-2" d="M57.78,17.14c1,1.86,1.27,2.18,2.28,3.92,1.88,3.23,4,6.85,5.87,10.08,2.93,5.21,6.82,11.59,9.52,16.81h5.84l18.47-31.3Z"/><path class="cls-3" d="M46.32,4.71c-1.81,1.13.16,2.81.91,3.9,2.1,3.09,3.05,6.11.65,9.73-.29-.45-.5-.75-.69-1.07Q42.76,9.69,38.33,2.1c-.5-.85-1-2.13-2.26-1.44s-.51,1.77,0,2.64c1.16,2.06,2.37,4.09,3.56,6.13l6,10.28c-4,.15-6.48-1.45-7.83-4.8A14.76,14.76,0,0,0,36,12a1.24,1.24,0,1,0-2.15,1.24c.37.73.8,1.44,1.21,2.15C41,25.63,47.23,35.71,52.82,46.13c2.5,4.67,5.55,7.6,10.86,8.1,1.18.11,3.1.09,3.84,1.4,3.71,6.54,7.88,12.67,12,19.72h0c.42-.24,1.58-1.26,1.94-1.47-3.19-5.49-6-10.51-9.21-15.25-2.75-4-3.09-6.76-2.22-11.57.38-2.08.47-3.61-.63-5.47C62.62,30.18,56,18.67,49.28,7.25,48.62,6.14,48.28,3.49,46.32,4.71Z"/><path class="cls-4" d="M53.87,28.81c-2-3.84-5.71-7-2.08-11.87C54.19,20.57,57.22,23.83,53.87,28.81Z"/><path class="cls-4" d="M48.6,32.85c5.68-.68,6.85,3.9,9,7.54C51.72,40.29,52.14,40.07,48.6,32.85Z"/><path class="cls-4" d="M57.84,27.43c4.37,5.94,4.58,7,2.15,11.78C57.87,35.45,54.45,32.26,57.84,27.43Z"/><path class="cls-4" d="M42.27,22.4c6.09-.65,7.09,4,9.3,7.61C45.74,30.7,44.44,26.26,42.27,22.4Z"/><path class="cls-4" d="M64,37.88c2.4,3.67,5.29,7,2,11.65C63.88,45.89,60.53,42.69,64,37.88Z"/><path class="cls-4" d="M63.66,50.91c-5.65.52-7.16-3.58-9-7.3C59.14,43.16,60,43.89,63.66,50.91Z"/><polygon class="cls-5" points="92.7 116.28 43.1 116.7 18.42 70.34 52.31 71.06 60.42 87.26 77.41 86.82 92.7 116.28"/></svg>